<svg id="Ebene_1" data-name="Ebene 1" xmlns="http://www.w3.org/2000/svg" viewBox="0 0 194.17 103.48"><defs><style>.cls-1{fill:#2d2d2d;}.cls-2{fill:#0c3591;}.cls-3{fill:#0008a5;}</style></defs><g id="TEXT"><path class="cls-1" d="M7191.06,7185.88h2.11l6.74,17.63h-3.57l-4.22-12-4.22,12h-3.58Zm-3.5,11.6h9.27v3.2h-9.27Z" transform="translate(-7091.15 -7154.8)"/><path class="cls-1" d="M7203.44,7203.05a4,4,0,0,1-1.45-1.86,7.6,7.6,0,0,1-.5-2.94v-2a7.76,7.76,0,0,1,.5-3,3.88,3.88,0,0,1,1.45-1.88,4,4,0,0,1,2.28-.65,3.09,3.09,0,0,1,1.84.6,4.26,4.26,0,0,1,1.34,1.71l-.26,2.79a2.45,2.45,0,0,0-.22-1.1,1.54,1.54,0,0,0-.63-.68,2,2,0,0,0-1-.24,1.76,1.76,0,0,0-1.45.64,2.73,2.73,0,0,0-.52,1.79v2a2.6,2.6,0,0,0,.52,1.74,1.75,1.75,0,0,0,1.45.62,2,2,0,0,0,1-.23,1.44,1.44,0,0,0,.63-.66,2.33,2.33,0,0,0,.22-1.06l.17,2.87a3.31,3.31,0,0,1-1.19,1.6,3.23,3.23,0,0,1-1.9.56A3.94,3.94,0,0,1,7203.44,7203.05Zm5.2-17.17H7212v17.63h-3.32Z" transform="translate(-7091.15 -7154.8)"/><path class="cls-1" d="M7213.66,7185.88h3.42l3.75,11.76,3.74-11.76H7228l-5.87,17.63h-2.59Z" transform="translate(-7091.15 -7154.8)"/><path class="cls-1" d="M7229.63,7185.88H7233v3.32h-3.32Zm0,5.05H7233v12.58h-3.32Z" transform="translate(-7091.15 -7154.8)"/><path class="cls-1" d="M7238.66,7203.49a9.68,9.68,0,0,1-2-.59,7.7,7.7,0,0,1-1.65-.93l2.05-2.56a8,8,0,0,0,1.9.9,6.27,6.27,0,0,0,1.89.31,4.85,4.85,0,0,0,1.81-.26c.43-.17.64-.41.64-.72a.76.76,0,0,0-.28-.64,1.6,1.6,0,0,0-.71-.31,12.3,12.3,0,0,0-1.23-.16l-.44-.05-.45,0-.11,0h-.1a14,14,0,0,1-2.25-.45,2.87,2.87,0,0,1-1.44-1,3.54,3.54,0,0,1-.59-2.2,3.56,3.56,0,0,1,2.37-3.52,7.38,7.38,0,0,1,2.78-.47,9.46,9.46,0,0,1,1.91.2,9.25,9.25,0,0,1,1.83.56,8.56,8.56,0,0,1,1.61.87l-2,2.41a7.8,7.8,0,0,0-1.72-.71,6.3,6.3,0,0,0-1.72-.26,4.28,4.28,0,0,0-1.56.23c-.37.15-.56.37-.56.64a.54.54,0,0,0,.3.49,2,2,0,0,0,.74.26l1.29.18.22,0,.21,0,.11,0h.11a15.62,15.62,0,0,1,2.39.43,3.15,3.15,0,0,1,1.57,1.07,3.68,3.68,0,0,1,.65,2.35,3.94,3.94,0,0,1-.63,2.25,4,4,0,0,1-1.84,1.42,7.78,7.78,0,0,1-2.93.49A12.14,12.14,0,0,1,7238.66,7203.49Z" transform="translate(-7091.15 -7154.8)"/><path class="cls-1" d="M7248.74,7185.88h3.32v3.32h-3.32Zm0,5.05h3.32v12.58h-3.32Z" transform="translate(-7091.15 -7154.8)"/><path class="cls-1" d="M7257.28,7203.05a4.31,4.31,0,0,1-1.86-1.87,6.45,6.45,0,0,1-.63-3v-2.05a6.34,6.34,0,0,1,.63-2.93,4.26,4.26,0,0,1,1.86-1.85,7.07,7.07,0,0,1,5.88,0,4.24,4.24,0,0,1,1.85,1.85,6.21,6.21,0,0,1,.64,2.93v2.09a6.2,6.2,0,0,1-.64,2.94,4.32,4.32,0,0,1-1.85,1.86,7.07,7.07,0,0,1-5.88,0Zm4.49-3.15a2.3,2.3,0,0,0,.56-1.65v-2.09a2.25,2.25,0,0,0-.56-1.63,2.06,2.06,0,0,0-1.57-.59,2,2,0,0,0-1.54.59,2.25,2.25,0,0,0-.55,1.63v2.09a2.34,2.34,0,0,0,.54,1.65,2,2,0,0,0,1.55.59A2.06,2.06,0,0,0,7261.77,7199.9Z" transform="translate(-7091.15 -7154.8)"/><path class="cls-1" d="M7268.68,7190.93H7272v12.58h-3.32Zm7.27,4.95a1.87,1.87,0,0,0-.53-1.43,2.06,2.06,0,0,0-1.49-.51,1.93,1.93,0,0,0-1.43.52,2,2,0,0,0-.5,1.45l-.25-2.79a4.57,4.57,0,0,1,1.36-1.78,3.2,3.2,0,0,1,2-.6,3.74,3.74,0,0,1,3.08,1.34,5.86,5.86,0,0,1,1.09,3.79v7.64H7276Z" transform="translate(-7091.15 -7154.8)"/><path class="cls-1" d="M7282,7200.19h3.32v3.32H7282Z" transform="translate(-7091.15 -7154.8)"/><path class="cls-1" d="M7191.53,7217.35v1.6h-8.07v-1.6Zm.43-3.89v1.61h-8.07v-1.61Zm-5.93-2.59h1.56l-1.82,10.67h-1.56Zm3.48,0h1.56l-1.82,10.67h-1.56Z" transform="translate(-7091.15 -7154.8)"/><path class="cls-1" d="M7197.88,7210.87h1.61l2,7.12,1.38-7.12H7205l-2.46,10.67h-1.9l-1.89-7.45-2,7.45h-1.89l-2.46-10.67h2.07l1.37,7.12Z" transform="translate(-7091.15 -7154.8)"/><path class="cls-1" d="M7206.8,7221.25a2.67,2.67,0,0,1-1.19-1.16,3.8,3.8,0,0,1-.41-1.85v-.86a4.4,4.4,0,0,1,.39-1.93,2.75,2.75,0,0,1,1.14-1.22,3.79,3.79,0,0,1,1.82-.41,2.88,2.88,0,0,1,1.71.5,3.09,3.09,0,0,1,1.08,1.44,6.3,6.3,0,0,1,.37,2.3v.5h-5.21v-1.36h3.38l0-.18a1.84,1.84,0,0,0-.42-1,1.15,1.15,0,0,0-.89-.36,1.46,1.46,0,0,0-1.13.44,1.76,1.76,0,0,0-.4,1.22v1a1.59,1.59,0,0,0,.44,1.2,1.65,1.65,0,0,0,1.22.43,2.45,2.45,0,0,0,.8-.14,2.32,2.32,0,0,0,.72-.41l1.31,1.17a4.41,4.41,0,0,1-1.33.84,4.2,4.2,0,0,1-1.5.29A4,4,0,0,1,7206.8,7221.25Z" transform="translate(-7091.15 -7154.8)"/><path class="cls-1" d="M7219.52,7219a.56.56,0,0,0,.16.43.61.61,0,0,0,.45.15h.34v1.93h-1a1.87,1.87,0,0,1-1.43-.53,2.07,2.07,0,0,1-.5-1.48v-8.66h2Z" transform="translate(-7091.15 -7154.8)"/><path class="cls-1" d="M7221.75,7210.87h2v2h-2Zm0,3.06h2v7.61h-2Z" transform="translate(-7091.15 -7154.8)"/><path class="cls-1" d="M7230,7213.93h2l-2.86,7.61h-1.42l-2.87-7.61h2l1.57,4.77Z" transform="translate(-7091.15 -7154.8)"/><path class="cls-1" d="M7234.38,7221.25a2.67,2.67,0,0,1-1.19-1.16,3.92,3.92,0,0,1-.41-1.85v-.86a4.4,4.4,0,0,1,.39-1.93,2.72,2.72,0,0,1,1.15-1.22,3.75,3.75,0,0,1,1.81-.41,2.83,2.83,0,0,1,1.71.5,3,3,0,0,1,1.08,1.44,6.3,6.3,0,0,1,.37,2.3v.5h-5.21v-1.36h3.38l0-.18a1.77,1.77,0,0,0-.42-1,1.15,1.15,0,0,0-.89-.36,1.44,1.44,0,0,0-1.12.44,1.71,1.71,0,0,0-.4,1.22v1a1.59,1.59,0,0,0,.43,1.2,1.65,1.65,0,0,0,1.22.43,2.45,2.45,0,0,0,.8-.14,2.32,2.32,0,0,0,.72-.41l1.32,1.17a4.58,4.58,0,0,1-1.34.84,4.12,4.12,0,0,1-1.5.29A4,4,0,0,1,7234.38,7221.25Z" transform="translate(-7091.15 -7154.8)"/><path class="cls-1" d="M7247.18,7221.54h-2.09v-10.67h2.09Z" transform="translate(-7091.15 -7154.8)"/><path class="cls-1" d="M7248.5,7210.87h7.82v1.94h-7.82Zm2.9.88h2v9.79h-2Z" transform="translate(-7091.15 -7154.8)"/><text x="-7091.15" y="-7154.8"/></g><g id="IT-Services"><polygon class="cls-2" points="13.67 23.68 13.71 23.65 0 15.73 0 47.35 13.67 39.46 13.67 23.68"/><polygon class="cls-3" points="0 15.73 13.71 23.65 27.34 15.78 27.34 0 0 15.73"/><polygon class="cls-2" points="82.11 15.73 54.68 0 54.68 15.78 68.35 23.68 68.35 23.68 82.11 15.73"/><polygon class="cls-3" points="41.01 71.03 27.34 63.14 13.67 71.03 41.06 86.84 41.06 71 41.01 71.03"/><polygon class="cls-2" points="68.35 71.03 54.68 63.14 54.68 63.14 41.06 71 41.06 86.84 68.35 71.03"/><polygon class="cls-3" points="68.35 23.68 68.35 39.46 82.02 47.35 82.11 15.73 68.35 23.68"/><path class="cls-1" d="M7121.62,7187.47h2.11l6.74,17.63h-3.57l-4.22-12-4.22,12h-3.58Zm-3.5,11.6h9.27v3.2h-9.27Z" transform="translate(-7091.15 -7154.8)"/><path class="cls-1" d="M7134,7204.64a4,4,0,0,1-1.45-1.86,7.67,7.67,0,0,1-.5-2.94v-2a7.83,7.83,0,0,1,.5-3A4,4,0,0,1,7134,7193a4,4,0,0,1,2.28-.64,3.09,3.09,0,0,1,1.84.6,4.26,4.26,0,0,1,1.34,1.71l-.26,2.78a2.44,2.44,0,0,0-.22-1.09,1.48,1.48,0,0,0-.63-.68,2,2,0,0,0-1-.24,1.73,1.73,0,0,0-1.45.64,2.73,2.73,0,0,0-.52,1.79v2a2.6,2.6,0,0,0,.52,1.74,1.78,1.78,0,0,0,1.45.62,2.12,2.12,0,0,0,1-.23,1.46,1.46,0,0,0,.63-.67,2.26,2.26,0,0,0,.22-1.05l.17,2.87a3.31,3.31,0,0,1-1.19,1.6,3.23,3.23,0,0,1-1.9.56A3.94,3.94,0,0,1,7134,7204.64Zm5.2-17.17h3.32v17.63h-3.32Z" transform="translate(-7091.15 -7154.8)"/><path class="cls-1" d="M7145.25,7201.78h3.32v3.32h-3.32Z" transform="translate(-7091.15 -7154.8)"/></g></svg>