<svg id="Ebene_1" data-name="Ebene 1" xmlns="http://www.w3.org/2000/svg" viewBox="0 0 284.03 58.96"><path d="M19.23,1.73h12L50.05,57.22h-10L36.22,45.69H13.77L9.93,57.22H.28ZM33.4,37.07,25,11.89,16.59,37.07ZM46.8,1.73H56.87l14.6,44.73L86,1.73h9.73L77.27,57.22H65.41Zm56.42,0H139v8.8H112.53V25h20.14v8.79H112.53V48.42H139v8.8H103.22Zm45.15,21.68a28.46,28.46,0,0,1,1.54-9.64,20.35,20.35,0,0,1,4.44-7.3,19,19,0,0,1,7-4.61A25.88,25.88,0,0,1,170.65.28q10.5,0,16.31,6.11t5.8,17V57.22h-9.48V24.7q0-7.26-3.28-11.19t-9.43-3.92q-6.15,0-9.43,4t-3.29,11.22V57.22h-9.48ZM204.79,1.73h9.48V57.22h-9.48Zm48,56.94a28.65,28.65,0,0,1-11.35-2.22,27.71,27.71,0,0,1-9-6.15,28.39,28.39,0,0,1-6-9.3,30.71,30.71,0,0,1-2.18-11.61,30.39,30.39,0,0,1,2.18-11.57A27.57,27.57,0,0,1,241.45,2.5a29.92,29.92,0,0,1,22.62,0,27.62,27.62,0,0,1,15.11,15.32,30.39,30.39,0,0,1,2.18,11.57A29.56,29.56,0,0,1,279,41.51a24.06,24.06,0,0,1,3.54,7.34,31.34,31.34,0,0,1,1.24,8.88h-8.62a22.62,22.62,0,0,0-.43-4.36,24.47,24.47,0,0,0-1.11-3.92A26.82,26.82,0,0,1,252.76,58.67ZM241,45.69a21.14,21.14,0,0,1,8.07-9.43,22.18,22.18,0,0,1,12.16-3.46A23,23,0,0,1,271.29,35a24.52,24.52,0,0,0,.59-5.63,21.54,21.54,0,0,0-1.45-8,19.45,19.45,0,0,0-4-6.36,18.09,18.09,0,0,0-6.06-4.19,20.1,20.1,0,0,0-15.19,0A17.89,17.89,0,0,0,239.11,15a19.28,19.28,0,0,0-4,6.36,21.55,21.55,0,0,0-1.46,8,22.72,22.72,0,0,0,1.88,9.39A17.65,17.65,0,0,0,241,45.69Zm11.78,4.1a19.4,19.4,0,0,0,8.58-1.92,17.31,17.31,0,0,0,6.53-5.42,12.74,12.74,0,0,0-7-1.62A12.45,12.45,0,0,0,253.62,43a15.41,15.41,0,0,0-5.12,6.36A21.23,21.23,0,0,0,252.76,49.79Z"/></svg>