<?xml version="1.0" encoding="UTF-8" standalone="no"?>
<!DOCTYPE svg PUBLIC "-//W3C//DTD SVG 1.1//EN" "http://www.w3.org/Graphics/SVG/1.1/DTD/svg11.dtd">
<svg width="100%" height="100%" viewBox="0 0 335 131" version="1.1" xmlns="http://www.w3.org/2000/svg" xmlns:xlink="http://www.w3.org/1999/xlink" xml:space="preserve" xmlns:serif="http://www.serif.com/" style="fill-rule:evenodd;clip-rule:evenodd;stroke-linejoin:round;stroke-miterlimit:2;">
    <g transform="matrix(1,0,0,1,-30,-28.6)">
        <path d="M186.4,93.8C186.2,88.2 195.7,78.7 202.6,71.7C212,62.2 220.1,54.1 219.8,45.3C219.7,41.7 218.1,38.4 215,35.6C202.9,25.5 190.8,37.1 180.1,49.8C169.9,61.9 158.5,78.4 146.5,77.9C140.4,77.8 132.9,73.5 125.5,65.6C118,57.5 113.3,49 111.3,43.8C117.1,46.7 127.1,54.3 136.2,64C138.4,66.2 139.9,67.4 141.2,68.2C141.4,68.3 141.6,68.4 141.9,68.6C142,68.7 142.2,68.7 142.3,68.8C143.6,69.4 145.1,69.8 146.7,69.7C149.2,69.5 151.7,67.9 154.1,65.1C142.5,50.2 121.2,30.8 108.8,29.7C104.4,29.3 101.7,31 100.1,32.6C95,37.7 98.6,46.7 99.8,49.6C106.5,66.1 126,90.6 146.2,90.7C164.2,91.5 178.5,71.7 190,58.1C194.8,52.5 203.6,44.7 206.4,45.2C206.4,45.2 206.9,45.3 207,45.6C207.4,48.6 198.3,57.7 193.5,62.6C183.6,72.6 173.5,82.8 173.6,93.8C173.5,104.7 183.7,115 193.5,125C198.3,129.9 207.4,139 207,142C207,142.4 206.4,142.4 206.4,142.4C203.6,142.9 194.7,135.2 190,129.5C178.5,116 161.3,96.1 143.3,97C123.1,97.2 103.7,121.7 96.9,138.1C95.7,141 92,150 97.2,155.1C98.7,156.6 101.5,158.3 105.9,158C118.3,156.9 139.6,137.5 151.2,122.6C148.8,119.8 146.3,118.2 143.8,118C142.2,117.9 140.7,118.3 139.4,118.9C139.3,119 139.1,119 139,119.1C138.8,119.2 138.6,119.3 138.3,119.5C137.1,120.3 135.5,121.5 133.3,123.7C124.2,133.4 114.2,141 108.4,143.9C110.4,138.8 115.1,130.2 122.6,122.1C130,114.2 137.4,109.8 143.6,109.8C155.6,109.3 169.9,125.8 180.1,137.9C190.8,150.6 202.9,162.2 215,152.1C218.1,149.4 219.7,146.1 219.8,142.4C220.1,133.6 212,125.5 202.6,116C195.6,109 186.2,99.4 186.4,93.8Z" style="fill:url(#_Linear1);fill-rule:nonzero;"/>
        <path d="M330.9,57C342.6,57 352.1,67 352.1,79.4C352.1,91.8 342.6,101.8 330.9,101.8C319.2,101.8 309.7,91.8 309.7,79.4C309.7,67 319.2,57 330.9,57M330.9,44.2C312.1,44.2 296.8,60 296.8,79.4C296.8,98.8 312.1,114.6 330.9,114.6C349.7,114.6 365,98.8 365,79.4C365,60 349.7,44.2 330.9,44.2Z" style="fill:rgb(61,61,61);fill-rule:nonzero;"/>
        <path d="M98.6,80.9C97.9,62.1 82.9,47 64.6,47C45.8,47 30.5,62.8 30.5,82.2C30.5,101.6 45.8,117.4 64.6,117.4C72.6,117.4 80,114.5 85.8,109.7L85.8,111.4C85.8,115 88.7,117.8 92.2,117.8C95.8,117.8 98.6,114.9 98.6,111.4L98.6,80.9ZM64.6,104.6C52.9,104.6 43.4,94.6 43.4,82.2C43.4,69.9 52.9,59.8 64.6,59.8C76.1,59.8 85.4,69.4 85.8,81.3L85.8,82.9C85.3,95 76,104.6 64.6,104.6Z" style="fill:rgb(61,61,61);fill-rule:nonzero;"/>
        <path d="M221.1,81.5L221.1,121.9C221.1,125.4 224,128.3 227.5,128.3C231,128.3 233.9,125.5 233.9,121.9L233.9,107.2C239.7,111.9 247.1,114.8 255.1,114.8C273.9,114.8 289.2,99.2 289.2,80C289.2,60.8 273.9,45.2 255.1,45.2C236.3,45.2 221,60.8 221,80L221.1,81.5ZM255.2,102.1C243.5,102.1 234,92.2 234,80C234,67.8 243.5,57.9 255.2,57.9C266.9,57.9 276.4,67.8 276.4,80C276.4,92.2 266.9,102.1 255.2,102.1Z" style="fill:rgb(61,61,61);fill-rule:nonzero;"/>
    </g>
    <defs>
        <linearGradient id="_Linear1" x1="0" y1="0" x2="1" y2="0" gradientUnits="userSpaceOnUse" gradientTransform="matrix(117.229,117.229,-117.229,117.229,96.7333,35.9667)"><stop offset="0" style="stop-color:rgb(255,237,87);stop-opacity:1"/><stop offset="0.13" style="stop-color:rgb(255,93,100);stop-opacity:1"/><stop offset="0.36" style="stop-color:rgb(255,50,84);stop-opacity:1"/><stop offset="0.55" style="stop-color:rgb(255,65,106);stop-opacity:1"/><stop offset="0.58" style="stop-color:rgb(229,66,120);stop-opacity:1"/><stop offset="0.69" style="stop-color:rgb(143,67,167);stop-opacity:1"/><stop offset="0.77" style="stop-color:rgb(90,69,196);stop-opacity:1"/><stop offset="0.81" style="stop-color:rgb(69,69,207);stop-opacity:1"/><stop offset="1" style="stop-color:rgb(69,69,207);stop-opacity:1"/></linearGradient>
    </defs>
</svg>
