<?xml version="1.0" encoding="UTF-8" standalone="no"?>
<!DOCTYPE svg PUBLIC "-//W3C//DTD SVG 1.1//EN" "http://www.w3.org/Graphics/SVG/1.1/DTD/svg11.dtd">
<svg width="100%" height="100%" viewBox="0 0 3388 530" version="1.1" xmlns="http://www.w3.org/2000/svg" xmlns:xlink="http://www.w3.org/1999/xlink" xml:space="preserve" xmlns:serif="http://www.serif.com/" style="fill-rule:evenodd;clip-rule:evenodd;stroke-linejoin:round;stroke-miterlimit:2;">
    <g transform="matrix(4.16667,0,0,4.16667,0,0)">
        <path d="M526.094,51.963C514.899,49.579 511.362,48.683 511.362,45.621C511.362,42.242 516.976,40.418 522.262,40.418C530.686,40.418 537.956,45.839 538.023,45.896L538.905,46.567L548.407,32.629L547.663,32.02C547.253,31.679 537.335,23.722 522.262,23.722C503.169,23.722 492.861,34.863 492.861,45.344C492.861,56.443 501.133,63.597 518.159,67.211C528.375,69.35 530.378,70.06 530.378,73.413C530.378,76.815 524.626,78.339 518.93,78.339C508.409,78.339 499.906,69.323 499.82,69.231L498.974,68.325L488.378,82.075L488.946,82.726C489.383,83.229 499.909,95.035 519.482,95.035C536.479,95.035 549.303,85.86 549.303,73.694C549.303,59.758 540.026,54.928 526.094,51.963Z" style="fill:rgb(23,32,39);fill-rule:nonzero;"/>
        <path d="M604.453,75.21C604.42,75.236 601.494,77.369 598.129,77.369C593.107,77.369 590.567,74.218 590.567,67.996L590.567,42.499L610.438,42.499L610.438,25.386L590.567,25.386L590.567,0.322L571.785,0.322L571.785,25.386L558.862,25.386L558.862,42.499L571.785,42.499L571.785,70.631C571.785,84.774 581.697,95.037 595.348,95.037C605.154,95.037 611.519,90.719 611.783,90.533L612.507,90.041L605.501,74.439L604.453,75.21Z" style="fill:rgb(23,32,39);fill-rule:nonzero;"/>
        <path d="M657.87,23.721C637.565,23.721 621.655,39.385 621.655,59.381C621.655,79.37 637.565,95.034 657.87,95.034C678.173,95.034 694.086,79.37 694.086,59.381C694.086,39.385 678.173,23.721 657.87,23.721ZM657.87,77.37C646.607,77.37 640.715,68.324 640.715,59.381C640.715,50.441 646.607,41.385 657.87,41.385C669.135,41.385 675.025,50.441 675.025,59.381C675.025,68.324 669.135,77.37 657.87,77.37Z" style="fill:rgb(23,32,39);fill-rule:nonzero;"/>
        <path d="M741.598,51.963C730.403,49.579 726.862,48.683 726.862,45.621C726.862,42.242 732.477,40.418 737.766,40.418C746.19,40.418 753.457,45.839 753.526,45.896L754.409,46.567L763.907,32.629L763.167,32.02C762.757,31.679 752.835,23.722 737.766,23.722C718.673,23.722 708.361,34.863 708.361,45.344C708.361,56.443 716.633,63.597 733.66,67.211C743.879,69.35 745.879,70.06 745.879,73.413C745.879,76.815 740.13,78.339 734.424,78.339C723.91,78.339 715.403,69.323 715.324,69.231L714.478,68.325L703.882,82.075L704.45,82.726C704.887,83.229 715.413,95.035 734.985,95.035C751.982,95.035 764.807,85.86 764.807,73.694C764.807,59.758 755.526,54.928 741.598,51.963Z" style="fill:rgb(23,32,39);fill-rule:nonzero;"/>
        <path d="M364.003,23.721C344.554,23.721 329.878,39.051 329.878,59.381C329.878,79.37 345.906,95.034 366.367,95.034C382.571,95.034 393.044,85.711 393.481,85.314L394.149,84.706L384.594,70.374L383.685,71.29C383.622,71.356 377.291,77.644 366.367,77.644C356.978,77.644 351.023,71.438 349.274,66.403L398.073,66.403L398.126,65.415C398.278,62.879 398.278,60.33 398.278,59.1C398.278,38.936 383.543,23.721 364.003,23.721ZM349.1,52.21C350.148,46.593 355.067,40.969 364.003,40.969C374.051,40.969 378.58,47.462 379.374,52.21L349.1,52.21Z" style="fill:rgb(23,32,39);fill-rule:nonzero;"/>
        <path d="M214.282,28.62C209.171,25.562 203.217,23.721 196.641,23.721C196.413,23.721 196.208,23.783 195.983,23.787C195.815,23.757 195.652,23.721 195.461,23.721C195.404,23.721 195.352,23.737 195.292,23.74C176.788,23.833 162.307,39.448 162.307,59.381C162.307,71.16 167.448,81.337 175.409,87.794C180.953,92.29 187.827,95.037 195.461,95.037C195.804,95.037 196.072,94.944 196.406,94.935C196.773,94.942 197.11,95.037 197.477,95.037C197.818,95.037 198.128,94.991 198.462,94.985C198.648,94.987 198.816,95.037 199.002,95.037C204.39,95.037 209.068,93.969 213.033,92.577L213.033,93.43C213.033,103.686 206.744,109.333 195.325,109.333C183.294,109.333 174.357,100.029 174.268,99.94L173.409,99.025L162.67,113.534L163.305,114.176C163.824,114.705 176.202,127.001 195.325,127.001C212.156,127.001 231.812,118.057 231.812,92.872L231.812,25.387L214.282,25.387L214.282,28.62ZM213.033,49.776L213.033,68.972C212.232,70.34 207.647,77.369 198.377,77.369C195.837,77.369 193.506,76.916 191.437,76.076C191.427,76.073 191.417,76.067 191.407,76.063C190.402,75.65 189.46,75.141 188.584,74.549C188.554,74.529 188.521,74.509 188.488,74.489C185.731,72.592 183.684,69.818 182.507,66.403C181.78,64.29 181.366,61.946 181.366,59.381C181.366,56.759 181.786,54.355 182.547,52.21C184.907,45.534 190.676,41.389 198.377,41.389C200.301,41.389 201.967,41.733 203.491,42.212C209.406,44.08 212.418,48.702 213.033,49.776Z" style="fill:rgb(23,32,39);fill-rule:nonzero;"/>
        <path d="M298.064,28.62C292.952,25.562 287.002,23.721 280.422,23.721C280.197,23.721 279.992,23.783 279.768,23.787C279.599,23.757 279.437,23.721 279.245,23.721C279.186,23.721 279.133,23.737 279.077,23.74C260.569,23.833 246.088,39.448 246.088,59.381C246.088,71.16 251.229,81.337 259.19,87.794C264.738,92.29 271.608,95.037 279.245,95.037C279.589,95.037 279.854,94.944 280.19,94.935C280.554,94.942 280.892,95.037 281.262,95.037C281.603,95.037 281.91,94.991 282.244,94.985C282.432,94.987 282.601,95.037 282.786,95.037C288.172,95.037 292.853,93.969 296.814,92.577L296.814,93.43C296.814,103.686 290.529,109.333 279.107,109.333C267.075,109.333 258.139,100.029 258.053,99.94L257.19,99.025L246.452,113.534L247.086,114.176C247.606,114.705 259.983,127.001 279.107,127.001C295.938,127.001 315.593,118.057 315.593,92.872L315.593,25.387L298.064,25.387L298.064,28.62ZM296.814,49.776L296.814,68.972C296.014,70.34 291.432,77.369 282.158,77.369C279.619,77.369 277.288,76.916 275.218,76.076C275.211,76.073 275.202,76.067 275.192,76.063C274.184,75.65 273.245,75.141 272.365,74.549C272.336,74.529 272.302,74.509 272.273,74.489C269.512,72.592 267.465,69.818 266.289,66.403C265.561,64.29 265.151,61.946 265.151,59.381C265.151,56.759 265.568,54.355 266.328,52.21C268.689,45.534 274.458,41.389 282.158,41.389C284.082,41.389 285.752,41.733 287.276,42.212C293.19,44.08 296.202,48.702 296.814,49.776Z" style="fill:rgb(23,32,39);fill-rule:nonzero;"/>
        <path d="M130.49,25.387L130.49,28.62C125.379,25.562 119.428,23.721 112.849,23.721C112.62,23.721 112.422,23.78 112.194,23.783C112.025,23.757 111.863,23.721 111.671,23.721C111.612,23.721 111.563,23.737 111.506,23.737C92.998,23.833 78.517,39.444 78.517,59.381C78.517,60.247 78.732,61.034 78.788,61.883C78.821,62.369 78.894,62.839 78.947,63.318C79.099,65.094 79.291,66.852 79.668,68.532C81.575,76.371 85.817,83.086 91.619,87.794C97.164,92.29 104.038,95.034 111.671,95.034C112.015,95.034 112.28,94.944 112.62,94.935C112.981,94.944 113.318,95.034 113.689,95.034C114.029,95.034 114.339,94.991 114.67,94.985C114.858,94.987 115.027,95.034 115.212,95.034C117.298,95.034 119.187,94.763 121.058,94.488C124.453,93.649 127.644,92.366 130.539,90.633L130.539,93.867L148.069,93.867L148.023,25.387L130.49,25.387ZM129.24,68.972C128.442,70.34 123.858,77.369 114.587,77.369C112.045,77.369 109.714,76.92 107.648,76.073C107.638,76.07 107.628,76.067 107.618,76.063C106.61,75.65 105.668,75.141 104.795,74.549C104.765,74.529 104.729,74.506 104.699,74.486C101.939,72.592 99.895,69.818 98.718,66.403C98.638,66.178 98.608,65.92 98.536,65.685C98.172,64.488 97.927,63.215 97.779,61.883C97.686,61.06 97.577,60.254 97.577,59.381C97.577,56.759 97.994,54.359 98.754,52.21C101.118,45.531 106.884,41.389 114.587,41.389C116.512,41.389 118.178,41.729 119.702,42.212C125.617,44.076 128.628,48.698 129.24,49.776L129.24,68.972Z" style="fill:rgb(23,32,39);fill-rule:nonzero;"/>
        <path d="M454.158,24.293C452.528,24.026 450.898,23.761 449.195,23.748C449.166,23.748 449.143,23.738 449.113,23.738C449.057,23.738 447.926,23.721 447.767,23.721C441.228,23.721 435.307,25.546 430.215,28.575L430.215,25.387L412.547,25.387L412.547,93.368L431.329,93.368L431.379,49.777C431.382,47.677 435.687,41.472 444.266,41.538C451.54,41.594 455.355,46.276 455.355,53.82L455.355,93.368L474.134,93.368L474.134,49.645C474.134,35.025 464.751,26.436 454.158,24.293Z" style="fill:rgb(23,32,39);fill-rule:nonzero;"/>
        <path d="M799.254,64.289C788.803,62.689 779.929,71.563 781.529,82.013C782.527,88.527 787.851,93.849 794.363,94.848C804.815,96.448 813.689,87.574 812.088,77.124C811.09,70.61 805.767,65.288 799.254,64.289Z" style="fill:rgb(240,75,65);fill-rule:nonzero;"/>
        <path d="M35.886,23.77C28.362,23.818 23.858,25.315 18.7,27.951L18.7,0.324L0,0.324L0,49.777L18.707,49.847C21.883,44.794 27.467,41.41 33.877,41.41C43.792,41.41 50.45,49.448 50.45,59.363C50.45,69.278 43.792,77.316 33.877,77.316C30.915,77.316 29.256,76.716 28.549,76.591C28.549,76.591 24.442,75.392 20.611,72.734C16.549,69.914 14.571,67.505 14.528,67.452L3.571,81.672C3.571,81.672 6.664,85.715 14.626,89.873C14.732,89.935 15.883,90.526 15.939,90.551C18.674,91.876 21.856,93.13 25.584,94.121C25.816,94.171 28.064,94.565 28.616,94.638C28.95,94.655 32.066,95.018 33.833,95.018C53.525,95.018 69.51,79.56 69.488,59.363C69.466,39.671 55.234,23.648 35.886,23.77Z" style="fill:rgb(23,32,39);fill-rule:nonzero;"/>
    </g>
</svg>
