<?xml version="1.0" encoding="UTF-8"?><svg id="Ebene_2" xmlns="http://www.w3.org/2000/svg" viewBox="0 0 831 262.41"><defs><style>.cls-1{fill:#03a9f4;}.cls-2{fill:#00194b;}.cls-3{fill:#ffc107;}.cls-4{fill:#ee7c0d;}.cls-5{fill:#e81e63;}.cls-6{fill:#64a161;}.cls-7{fill:#936cbf;}.cls-8{fill:#9cdd5b;}.cls-9{fill:#da4221;}.cls-10{fill:#3586bd;}.cls-11{fill:#63b5ab;}.cls-12{fill:#7d297e;}</style></defs><g id="Finale_Gestaltungselemente"><g><rect class="cls-9" x="70.64" y="28.97" width="42.52" height="42.52" transform="translate(62.44 -50.27) rotate(45)"/><rect class="cls-4" x="40.57" y="59.04" width="42.52" height="42.52" transform="translate(74.89 -20.2) rotate(45)"/><rect class="cls-5" x="10.5" y="89.11" width="42.52" height="42.52" transform="translate(87.34 9.87) rotate(45)"/><rect class="cls-12" x="40.57" y="119.17" width="42.52" height="42.52" transform="translate(117.41 -2.59) rotate(45)"/><rect class="cls-7" x="130.78" y="89.11" width="42.52" height="42.52" transform="translate(122.58 -75.18) rotate(45)"/><rect class="cls-1" x="100.71" y="119.18" width="42.52" height="42.52" transform="translate(135.03 -45.11) rotate(45)"/><rect class="cls-10" x="70.64" y="149.25" width="42.52" height="42.52" transform="translate(147.49 -15.05) rotate(45)"/><rect class="cls-11" x="100.71" y="179.31" width="42.52" height="42.52" transform="translate(177.55 -27.5) rotate(45)"/><rect class="cls-3" x="190.91" y="149.25" width="42.52" height="42.52" transform="translate(182.71 -100.09) rotate(45)"/><rect class="cls-8" x="160.84" y="179.31" width="42.52" height="42.52" transform="translate(195.16 -70.02) rotate(45)"/><rect class="cls-6" x="130.78" y="209.38" width="42.52" height="42.52" transform="translate(207.62 -39.95) rotate(45)"/><path class="cls-2" d="M262.42,131.2c0-72.25-58.39-130.85-130.56-131.2l110.37,110.37-30.07,30.07,30.07,30.07-90.2,90.2L1.7,110.37,91.9,20.17l-10.41-10.41C33.68,29.35,0,76.34,0,131.2c0,72.47,58.74,131.21,131.21,131.21,72.47,0,131.21-58.74,131.21-131.21Z"/></g><g><path class="cls-2" d="M811.06,161.97h4.92c2.61,0,3.85,1.33,3.85,3.08s-1.24,3.04-3.85,3.04h-4.92v-6.12Zm3.68,12.88l6.21,10.91h10.05l-7.36-12.49c3.21-1.46,5.52-4.11,5.52-8.56,0-8-6.08-9.97-14.21-9.97h-12.84v31.02h8.94v-10.91h3.68Zm-41.81-20.11v31.02h24.73v-7.7h-15.79v-4.02h14.81v-7.7h-14.81v-3.94h15.62v-7.66h-24.56Zm-5.18,0h-8.94v11.6h-10.66v-11.6h-8.94v31.02h8.94v-11.73h10.66v11.73h8.94v-31.02Zm-49.1,7.66v23.36h8.94v-23.36h9.29v-7.66h-27.47v7.66h9.24Zm-35.68-7.66v31.02h24.73v-7.7h-15.79v-4.02h14.81v-7.7h-14.81v-3.94h15.62v-7.66h-24.56Zm-26.13,15.32c0-5.35,2.53-8.56,6.63-8.56,3.3,0,5.05,1.37,5.6,3.12h8.77c-1.75-7.4-7.58-10.61-14.51-10.61-9.76,0-15.83,6.25-15.83,16.05s5.65,16.26,14.55,16.26c3.81,0,7.06-1.2,8.94-3.85l.04,3.29h6.97v-17.72h-15.4v6.76h6.72v.04c0,1.67-1.8,3.98-5.73,3.98-4.54,0-6.76-3.55-6.76-8.77m-27.49,8.77c-3.6,0-6.98-2.53-6.98-8.64s3.38-8.69,6.98-8.69,6.97,2.57,6.97,8.69-3.38,8.64-6.97,8.64m0,7.49c9.5,0,16.26-5.9,16.26-16.13s-6.76-16.17-16.26-16.17-16.26,5.95-16.26,16.17,6.76,16.13,16.26,16.13m-35.29-23.92v23.36h8.94v-23.36h9.29v-7.66h-27.47v7.66h9.24Zm-32.22,15.66v-23.32h-8.94v31.02h23.41v-7.7h-14.46Zm-25.59,0v-23.32h-8.94v31.02h23.41v-7.7h-14.46Zm-30.15-4.15l2.91-9.33,2.82,9.33h-5.73Zm-1.97-19.17l-11.26,31.02h9.54l1.58-5.18h9.89l1.58,5.18h9.71l-11.25-31.02h-9.8Zm-38.73,7.66v23.36h8.94v-23.36h9.29v-7.66h-27.47v7.66h9.24Zm-11.48-7.66h-8.94v31.02h8.94v-31.02Zm-44.63,15.32c0-5.35,2.52-8.56,6.63-8.56,3.3,0,5.05,1.37,5.61,3.12h8.77c-1.75-7.4-7.58-10.61-14.51-10.61-9.76,0-15.83,6.25-15.83,16.05s5.65,16.26,14.55,16.26c3.81,0,7.06-1.2,8.94-3.85l.04,3.29h6.97v-17.72h-15.4v6.76h6.72v.04c0,1.67-1.8,3.98-5.73,3.98-4.54,0-6.76-3.55-6.76-8.77m-23.92,15.7h11.04v-31.02h-8.26v19.73l-9.54-19.73h-11v31.02h8.26v-19.77l9.5,19.77Zm-22.85-31.02h-8.94v31.02h8.94v-31.02Zm-31.41,7.23h4.92c2.61,0,3.85,1.33,3.85,3.08s-1.24,3.04-3.85,3.04h-4.92v-6.12Zm3.68,12.88l6.21,10.91h10.05l-7.36-12.49c3.21-1.46,5.52-4.11,5.52-8.56,0-8-6.08-9.97-14.21-9.97h-12.84v31.02h8.94v-10.91h3.68Zm-34.28,3.68v-5.35h5.48c2.01,0,3.12,1.16,3.12,2.7s-1.11,2.65-3.12,2.65h-5.48Zm0-11.55v-5.01h4.92c1.71,0,2.65,1.2,2.65,2.52s-.94,2.48-2.65,2.48h-4.92Zm-8.94-12.24v31.02h14.16c7.62,0,12.71-2.82,12.71-9.88,0-3.42-1.41-5.6-3.6-6.89,1.75-1.58,2.44-3.47,2.44-6.03,0-6.63-5.18-8.22-12.11-8.22h-13.61Z"/><path class="cls-2" d="M809.25,131.83h21.71v-61.01h-16.24v38.79l-18.76-38.79h-21.63v61.01h16.24v-38.88l18.68,38.88Zm-73.34-13.63c-7.07,0-13.72-4.96-13.72-17s6.65-17.08,13.72-17.08,13.72,5.05,13.72,17.08-6.65,17-13.72,17m0,14.73c18.68,0,31.98-11.61,31.98-31.72s-13.3-31.81-31.98-31.81-31.98,11.7-31.98,31.81,13.3,31.72,31.98,31.72m-38.36-62.1h-17.59v61.01h17.59v-61.01Zm-51.52-1.43c-12.96,0-26,6.23-26,19.44,0,11.61,9.51,16.32,19.1,18.26l6.9,1.43c5.72,1.18,9.09,2.52,9.09,5.13s-3.11,3.45-7.99,3.45c-7.91,0-16.07-3.37-21.2-7.15l-8.67,14.22c6.82,4.96,16.41,8.75,29.28,8.75,14.81,0,26.67-6.9,26.67-20.7,0-12.03-9.76-15.65-21.12-18.09l-9-1.85c-3.45-.76-5.05-1.85-5.05-3.79,0-2.36,2.78-3.45,7.4-3.45,7.32,0,15.48,2.86,19.94,5.64l7.4-14.56c-7.66-4.21-15.99-6.73-26.76-6.73m-70.25,1.43h-17.59v34.58c0,20.28,8.5,27.52,27.68,27.52s27.35-9.09,27.35-28.1v-34h-17.59v35.76c0,7.15-2.36,11.61-9.93,11.61s-9.93-3.87-9.93-11.61v-35.76Zm-66.98,0v61.01h17.59v-23.06h25.08v-15.15h-25.08v-7.74h26.67v-15.06h-44.26Zm-47.96-1.43c-19.02,0-30.8,11.95-30.8,31.72s11.78,31.81,30.8,31.81c15.65,0,27.68-9,30.12-24.49h-17.25c-1.18,5.81-5.89,9.76-12.29,9.76-7.66,0-13.04-5.64-13.04-17.08s5.39-17,13.04-17c6.4,0,10.85,3.79,12.03,9.68h17.33c-2.44-15.4-14.3-24.4-29.96-24.4m-37.34,1.43h-17.59v61.01h17.59v-61.01Zm-57.15,14.22h8.84c5.05,0,7.99,1.94,7.99,6.4s-2.95,6.31-7.99,6.31h-8.84v-12.71Zm7.24-14.22h-24.82v61.01h17.59v-19.86h7.24c15.9,0,27.85-3.95,27.85-20.53s-11.95-20.62-27.85-20.62m-81.82,0v61.01h48.64v-15.15h-31.05v-7.91h29.11v-15.15h-29.11v-7.74h30.71v-15.06h-48.3Z"/></g></g></svg>