<?xml version="1.0" encoding="UTF-8"?> <svg xmlns="http://www.w3.org/2000/svg" xmlns:xlink="http://www.w3.org/1999/xlink" width="299pt" height="117pt" viewBox="0 0 299 117"><g id="surface1"><path style=" stroke:none;fill-rule:nonzero;fill:rgb(10.196078%,49.803922%,70.980392%);fill-opacity:1;" d="M 37.546875 2.546875 C 37.546875 3.949219 36.410156 5.089844 35.007812 5.089844 C 33.609375 5.089844 32.472656 3.949219 32.472656 2.546875 C 32.472656 1.140625 33.609375 0 35.007812 0 C 36.410156 0 37.546875 1.140625 37.546875 2.546875 Z M 37.546875 2.546875 "></path><path style=" stroke:none;fill-rule:nonzero;fill:rgb(10.196078%,49.803922%,70.980392%);fill-opacity:1;" d="M 70.273438 21.941406 C 70.273438 23.347656 69.136719 24.488281 67.734375 24.488281 C 66.332031 24.488281 65.199219 23.347656 65.199219 21.941406 C 65.199219 20.535156 66.332031 19.394531 67.734375 19.394531 C 69.136719 19.394531 70.273438 20.535156 70.273438 21.941406 Z M 70.273438 21.941406 "></path><path style=" stroke:none;fill-rule:nonzero;fill:rgb(10.196078%,49.803922%,70.980392%);fill-opacity:1;" d="M 5.113281 23.960938 C 5.113281 25.367188 3.976562 26.507812 2.574219 26.507812 C 1.171875 26.507812 0.0351562 25.367188 0.0351562 23.960938 C 0.0351562 22.554688 1.171875 21.417969 2.574219 21.417969 C 3.976562 21.417969 5.113281 22.554688 5.113281 23.960938 Z M 5.113281 23.960938 "></path><path style=" stroke:none;fill-rule:nonzero;fill:rgb(10.196078%,49.803922%,70.980392%);fill-opacity:1;" d="M 35.042969 29.265625 C 33.929688 28.507812 31.453125 26.851562 29.554688 25.929688 C 30.144531 23.730469 35.042969 5.878906 35.042969 5.878906 C 35.042969 5.878906 40.25 24.488281 40.714844 25.554688 C 39.726562 26.078125 36.089844 28.5 35.042969 29.265625 Z M 35.042969 29.265625 "></path><path style=" stroke:none;fill-rule:nonzero;fill:rgb(10.196078%,49.803922%,70.980392%);fill-opacity:1;" d="M 43.855469 37 C 41.035156 33.847656 37.527344 31.222656 35.8125 29.921875 C 42.808594 25.097656 50.429688 20.117188 64.265625 21.875 C 59.117188 23.214844 50.691406 29.304688 43.855469 37 Z M 43.855469 37 "></path><path style=" stroke:none;fill-rule:nonzero;fill:rgb(10.196078%,49.803922%,70.980392%);fill-opacity:1;" d="M 23.019531 46.179688 C 23.558594 44.171875 25.066406 40.105469 25.589844 38.265625 C 27.539062 40.167969 30.636719 44.492188 31.324219 46.164062 C 29.308594 46.164062 23.019531 46.179688 23.019531 46.179688 Z M 23.019531 46.179688 "></path><path style=" stroke:none;fill-rule:nonzero;fill:rgb(10.196078%,49.803922%,70.980392%);fill-opacity:1;" d="M 46.277344 46.179688 C 45.609375 43.867188 44.347656 39.875 43.902344 38.25 C 42.429688 40.203125 39.5625 44.03125 38.074219 46.132812 C 39.957031 46.132812 46.277344 46.179688 46.277344 46.179688 Z M 46.277344 46.179688 "></path><path style=" stroke:none;fill-rule:nonzero;fill:rgb(10.196078%,49.803922%,70.980392%);fill-opacity:1;" d="M 43.183594 37.722656 C 37.972656 32.351562 25.992188 22.1875 14.394531 22.1875 C 12.578125 22.1875 8.867188 22.410156 5.917969 23.960938 C 9.894531 24.859375 25.5625 31.058594 34.355469 49.464844 Z M 43.183594 37.722656 "></path><path style=" stroke:none;fill-rule:nonzero;fill:rgb(10.196078%,49.803922%,70.980392%);fill-opacity:1;" d="M 27.242188 58.386719 C 29.996094 58.472656 40.382812 58.472656 43.113281 58.386719 L 43.28125 59.765625 L 39.3125 60.953125 C 38.820312 61.03125 38.457031 61.453125 38.449219 61.949219 C 38.425781 62.695312 38.382812 66.257812 38.382812 67.304688 L 38.382812 96.371094 C 38.382812 98.464844 38.304688 100.375 38.140625 102.097656 C 38.011719 103.65625 37.726562 105.199219 37.292969 106.699219 C 36.914062 107.988281 36.332031 109.207031 35.570312 110.308594 C 34.796875 111.402344 33.847656 112.355469 32.757812 113.132812 C 31.488281 114.027344 30.109375 114.753906 28.65625 115.296875 C 26.800781 115.996094 24.898438 116.5625 22.960938 117 L 22.480469 115.394531 C 24.699219 114.453125 26.445312 113.417969 27.710938 112.28125 C 28.9375 111.210938 29.917969 109.886719 30.59375 108.402344 C 31.269531 106.84375 31.691406 105.183594 31.839844 103.492188 C 32.023438 101.675781 32.113281 99.621094 32.113281 97.332031 L 32.113281 67.433594 C 32.113281 66.34375 32.070312 62.8125 32.046875 62.109375 C 32.027344 61.550781 31.769531 61.1875 31.28125 61.019531 L 27.3125 59.765625 Z M 27.242188 58.386719 "></path><path style=" stroke:none;fill-rule:nonzero;fill:rgb(10.196078%,49.803922%,70.980392%);fill-opacity:1;" d="M 91.683594 79.882812 C 91.683594 87.28125 89.589844 93.234375 85.398438 97.734375 C 81.210938 102.234375 75.351562 104.484375 67.828125 104.488281 C 60.6875 104.488281 55.160156 102.40625 51.25 98.246094 C 47.339844 94.089844 45.386719 88.457031 45.382812 81.355469 C 45.382812 73.957031 47.488281 68.101562 51.699219 63.785156 C 55.910156 59.472656 61.746094 57.316406 69.203125 57.320312 C 76.367188 57.320312 81.902344 59.335938 85.816406 63.371094 C 89.726562 67.402344 91.683594 72.90625 91.683594 79.882812 Z M 52.390625 80.300781 C 52.390625 87.269531 53.796875 92.613281 56.613281 96.320312 C 59.429688 100.03125 63.558594 101.886719 68.996094 101.890625 C 74.351562 101.890625 78.300781 100.203125 80.847656 96.835938 C 83.394531 93.464844 84.667969 88.179688 84.671875 80.972656 C 84.671875 74.214844 83.316406 69.019531 80.609375 65.382812 C 77.898438 61.746094 73.71875 59.925781 68.066406 59.925781 C 62.582031 59.925781 58.597656 61.613281 56.113281 64.980469 C 53.628906 68.347656 52.386719 73.453125 52.390625 80.300781 Z M 52.390625 80.300781 "></path><path style=" stroke:none;fill-rule:nonzero;fill:rgb(10.196078%,49.803922%,70.980392%);fill-opacity:1;" d="M 105.449219 67.304688 L 105.449219 93.453125 C 105.449219 94.734375 105.453125 95.898438 105.464844 96.949219 C 105.476562 97.996094 105.492188 98.949219 105.511719 99.804688 C 105.5 100.320312 105.847656 100.773438 106.347656 100.894531 L 109.898438 102.015625 L 109.996094 103.398438 C 107.457031 103.332031 97.144531 103.332031 94.445312 103.398438 L 94.316406 102.015625 L 98.253906 100.828125 C 98.808594 100.660156 99.097656 100.328125 99.117188 99.835938 C 99.136719 98.980469 99.152344 98.023438 99.164062 96.964844 C 99.175781 95.90625 99.179688 94.734375 99.179688 93.449219 L 99.179688 67.433594 C 99.179688 66.34375 99.179688 65.359375 99.164062 64.480469 C 99.148438 63.605469 99.136719 62.808594 99.117188 62.109375 C 99.09375 61.550781 98.835938 61.1875 98.347656 61.019531 L 94.378906 59.765625 L 94.316406 58.386719 C 97.066406 58.472656 107.316406 58.472656 109.835938 58.386719 L 110.003906 59.765625 L 106.355469 60.890625 C 105.875 60.976562 105.523438 61.394531 105.519531 61.882812 C 105.5 62.652344 105.484375 63.488281 105.472656 64.394531 C 105.460938 65.296875 105.453125 66.269531 105.449219 67.304688 Z M 106.28125 80.585938 L 119.175781 66.183594 C 120.179688 65.050781 120.988281 64.09375 121.605469 63.3125 C 122.226562 62.53125 122.535156 61.90625 122.535156 61.433594 C 122.535156 61.007812 122.25 60.71875 121.671875 60.566406 L 119.046875 59.863281 L 118.984375 58.386719 C 121.097656 58.472656 130.898438 58.472656 133.09375 58.386719 L 133.222656 59.765625 L 129.992188 60.796875 C 129.046875 61.09375 128.175781 61.597656 127.445312 62.273438 C 126.730469 62.941406 125.96875 63.722656 125.15625 64.613281 L 112.359375 78.726562 L 126.917969 97.96875 C 127.453125 98.695312 128.066406 99.363281 128.75 99.953125 C 129.4375 100.503906 130.234375 100.902344 131.085938 101.125 L 134 102.023438 L 134.0625 103.402344 C 132.269531 103.339844 123.546875 103.351562 122.800781 103.371094 C 122.050781 101.832031 120.078125 98.929688 116.878906 94.667969 Z M 106.28125 80.585938 "></path><path style=" stroke:none;fill-rule:nonzero;fill:rgb(10.196078%,49.803922%,70.980392%);fill-opacity:1;" d="M 168.355469 58.386719 L 168.546875 58.644531 L 166.691406 68.558594 L 165.410156 68.78125 L 163.425781 61.371094 L 148.644531 61.371094 L 148.644531 79.015625 L 151.554688 79.015625 C 153.773438 79.015625 156.25 78.992188 158.976562 78.949219 C 159.492188 78.960938 159.945312 78.613281 160.066406 78.113281 L 161.1875 73.78125 L 162.914062 73.71875 C 162.851562 76.714844 162.816406 78.925781 162.820312 80.359375 C 162.820312 81.75 162.851562 83.933594 162.914062 86.902344 L 161.1875 87.03125 L 160.035156 82.636719 C 159.863281 82.078125 159.535156 81.789062 159.042969 81.769531 C 156.269531 81.730469 153.761719 81.707031 151.523438 81.707031 L 148.644531 81.707031 L 148.644531 93.382812 C 148.644531 95.757812 148.664062 98.101562 148.707031 100.410156 L 164.0625 100.410156 L 167.972656 92.265625 L 169.410156 92.007812 L 168.707031 103.171875 L 168.480469 103.398438 C 162.957031 103.332031 140.34375 103.332031 137.636719 103.398438 L 137.507812 102.015625 L 141.445312 100.828125 C 141.976562 100.679688 142.265625 100.347656 142.308594 99.835938 C 142.328125 98.980469 142.34375 98.023438 142.355469 96.964844 C 142.367188 95.90625 142.375 94.734375 142.375 93.449219 L 142.375 67.433594 C 142.375 66.34375 142.367188 65.359375 142.355469 64.480469 C 142.34375 63.605469 142.328125 62.8125 142.308594 62.109375 C 142.289062 61.550781 142.03125 61.1875 141.539062 61.019531 L 137.574219 59.765625 L 137.507812 58.386719 C 140.265625 58.472656 163.042969 58.472656 168.355469 58.386719 Z M 168.355469 58.386719 "></path><path style=" stroke:none;fill-rule:nonzero;fill:rgb(10.196078%,49.803922%,70.980392%);fill-opacity:1;" d="M 186.6875 93.453125 C 186.6875 94.734375 186.695312 95.886719 186.707031 96.914062 C 186.71875 97.945312 186.734375 98.875 186.753906 99.707031 C 186.773438 100.371094 187.054688 100.785156 187.585938 100.957031 L 191.140625 102.015625 L 191.234375 103.398438 C 188.695312 103.332031 178.390625 103.332031 175.683594 103.398438 L 175.554688 102.015625 L 179.492188 100.828125 C 180.023438 100.679688 180.3125 100.347656 180.355469 99.835938 C 180.375 98.980469 180.394531 98.023438 180.402344 96.964844 C 180.414062 95.90625 180.417969 94.734375 180.417969 93.449219 L 180.417969 67.433594 C 180.417969 66.34375 180.414062 65.359375 180.402344 64.480469 C 180.394531 63.605469 180.378906 62.8125 180.355469 62.109375 C 180.332031 61.550781 180.078125 61.1875 179.585938 61.019531 L 175.621094 59.765625 L 175.554688 58.386719 C 178.308594 58.472656 180.996094 58.515625 183.621094 58.515625 C 184.136719 58.515625 184.796875 58.5 185.59375 58.46875 C 186.390625 58.4375 187.359375 58.398438 188.503906 58.355469 C 189.667969 58.3125 190.636719 58.28125 191.414062 58.257812 C 192.1875 58.238281 192.800781 58.226562 193.25 58.226562 C 198.164062 58.226562 201.847656 59.148438 204.304688 60.984375 C 206.765625 62.824219 207.992188 65.507812 207.992188 69.039062 C 207.992188 72.222656 207.148438 74.808594 205.460938 76.785156 C 203.777344 78.761719 201.203125 80.285156 197.742188 81.355469 C 199.105469 83.410156 200.359375 85.394531 201.503906 87.308594 C 202.652344 89.222656 203.714844 90.976562 204.699219 92.570312 C 205.683594 94.164062 206.585938 95.570312 207.402344 96.789062 C 208.078125 97.820312 208.84375 98.785156 209.695312 99.675781 C 210.035156 100.019531 210.398438 100.335938 210.785156 100.621094 C 211.136719 100.882812 211.519531 101.105469 211.921875 101.28125 C 212.328125 101.453125 212.742188 101.605469 213.167969 101.730469 C 213.605469 101.859375 214.089844 101.984375 214.625 102.113281 L 214.71875 103.527344 C 213.4375 103.699219 212.144531 103.796875 210.847656 103.8125 C 209.972656 103.8125 209.203125 103.792969 208.542969 103.75 C 207.945312 103.714844 207.351562 103.628906 206.769531 103.492188 C 206.28125 103.375 205.808594 103.207031 205.355469 102.992188 C 204.914062 102.773438 204.496094 102.511719 204.109375 102.203125 C 203.21875 101.542969 202.347656 100.585938 201.5 99.332031 C 200.648438 98.082031 199.761719 96.664062 198.839844 95.082031 C 197.917969 93.5 196.960938 91.816406 195.96875 90.03125 C 194.972656 88.242188 193.925781 86.492188 192.820312 84.785156 C 192.496094 84.273438 192.21875 83.867188 191.988281 83.566406 C 191.78125 83.289062 191.53125 83.046875 191.242188 82.859375 C 190.953125 82.683594 190.632812 82.5625 190.300781 82.507812 C 189.84375 82.433594 189.382812 82.390625 188.921875 82.378906 L 186.683594 82.3125 Z M 186.6875 79.914062 C 187.988281 79.976562 189.195312 80.007812 190.304688 80.007812 C 193.996094 80.007812 196.699219 79.222656 198.414062 77.652344 C 200.132812 76.078125 200.992188 73.613281 200.992188 70.257812 C 200.992188 67.007812 200.171875 64.632812 198.527344 63.136719 C 196.886719 61.636719 194.316406 60.890625 190.816406 60.890625 C 190.21875 60.890625 189.578125 60.910156 188.898438 60.953125 C 188.214844 60.996094 187.480469 61.058594 186.6875 61.144531 Z M 186.6875 79.914062 "></path><path style=" stroke:none;fill-rule:nonzero;fill:rgb(24.705882%,25.882353%,25.882353%);fill-opacity:1;" d="M 251.089844 93.453125 C 251.089844 94.734375 251.09375 95.898438 251.105469 96.949219 C 251.117188 97.996094 251.132812 98.949219 251.152344 99.804688 C 251.171875 100.335938 251.546875 100.703125 252.273438 100.894531 L 255.890625 102.015625 L 255.953125 103.398438 C 253.199219 103.332031 242.789062 103.332031 240.082031 103.398438 L 239.953125 102.015625 L 243.890625 100.828125 C 244.421875 100.679688 244.710938 100.347656 244.753906 99.835938 C 244.773438 98.980469 244.792969 98.023438 244.800781 96.964844 C 244.8125 95.90625 244.816406 94.734375 244.816406 93.449219 L 244.816406 67.433594 C 244.816406 66.34375 244.8125 65.359375 244.800781 64.480469 C 244.792969 63.605469 244.773438 62.8125 244.753906 62.109375 C 244.730469 61.550781 244.476562 61.1875 243.984375 61.019531 L 240.019531 59.765625 L 239.953125 58.386719 C 242.707031 58.472656 253.09375 58.472656 255.824219 58.386719 L 255.953125 59.765625 L 251.984375 60.953125 C 251.503906 61.042969 251.15625 61.460938 251.152344 61.949219 C 251.128906 62.699219 251.113281 63.515625 251.105469 64.402344 C 251.09375 65.289062 251.089844 66.257812 251.085938 67.304688 Z M 251.089844 93.453125 "></path><path style=" stroke:none;fill-rule:nonzero;fill:rgb(24.705882%,25.882353%,25.882353%);fill-opacity:1;" d="M 270.550781 103.398438 L 270.421875 102.015625 L 275.15625 100.605469 C 275.691406 100.457031 275.96875 100.125 275.992188 99.613281 C 276.035156 97.988281 276.054688 95.910156 276.054688 93.386719 L 276.054688 61.371094 L 264.757812 61.371094 L 261.910156 69.902344 L 260.628906 70.128906 L 259.796875 58.644531 L 260.019531 58.386719 C 265.265625 58.472656 293.457031 58.472656 298.769531 58.386719 L 298.960938 58.644531 L 296.945312 69.902344 L 295.664062 70.128906 L 293.617188 61.371094 L 282.320312 61.371094 L 282.320312 93.386719 C 282.320312 95.910156 282.34375 97.988281 282.382812 99.613281 C 282.40625 100.125 282.683594 100.457031 283.21875 100.605469 L 287.953125 102.015625 L 288.019531 103.398438 C 284.714844 103.332031 273.726562 103.332031 270.550781 103.398438 Z M 270.550781 103.398438 "></path></g></svg> 