<?xml version="1.0" encoding="UTF-8" standalone="no"?>
<!DOCTYPE svg PUBLIC "-//W3C//DTD SVG 1.1//EN" "http://www.w3.org/Graphics/SVG/1.1/DTD/svg11.dtd">
<svg width="100%" height="100%" viewBox="0 0 580 255" version="1.1" xmlns="http://www.w3.org/2000/svg" xmlns:xlink="http://www.w3.org/1999/xlink" xml:space="preserve" xmlns:serif="http://www.serif.com/" style="fill-rule:evenodd;clip-rule:evenodd;stroke-linejoin:round;stroke-miterlimit:2;">
    <g id="a" transform="matrix(1,0,0,1,-55.925,-40.485)">
        <rect x="0" y="0" width="691.85" height="335.97" style="fill:none;"/>
    </g>
    <g id="b" transform="matrix(1,0,0,1,-55.07,-27.663)">
        <g>
            <path d="M323.34,229.45C339.06,229.45 353.54,219.33 353.54,203.4C353.54,187.47 341.34,176.29 323.35,176.29L313.08,176.29C288.9,176.29 269.09,194.79 269.09,221.55L269.09,278.84L227.87,278.84L227.87,221.7C227.87,189.78 260.47,164.56 299.77,164.56L328.58,164.56C358.2,164.56 394.02,174.18 394.02,203.41C394.02,232.64 361.2,242.25 328.57,242.25L273.95,242.25L273.95,229.46L323.34,229.46L323.34,229.45Z" style="fill:rgb(26,29,86);fill-rule:nonzero;"/>
            <rect x="424.39" y="164.55" width="41.22" height="114.28" style="fill:rgb(26,29,86);"/>
            <path d="M612.49,227.49L541.24,227.49C544.11,249.16 561.15,265.39 581.22,265.39L634.7,265.39L634.7,278.34L569.61,278.34C530.31,278.34 497.67,253.13 497.67,221.2C497.67,189.27 530.3,164.06 569.6,164.06L634.71,164.06L634.71,176.74L581.22,176.74C561.06,176.74 543.97,193.11 541.21,214.91L612.49,214.91L612.49,227.49Z" style="fill:rgb(26,29,86);fill-rule:nonzero;"/>
            <path d="M97.99,190.19C97.99,194.78 103.48,198.91 113.25,201.57C123.1,204.25 135.48,207.36 148.19,210.44C173.27,216.52 199.7,224.62 199.7,243.42C199.7,264.5 161.74,278.82 110.19,278.82C91.28,278.82 73.32,276.97 55.07,271.76L60.88,261.49C77.48,267.59 101.11,268.75 118.55,268.75C139.7,268.75 156.84,262.03 156.84,252.21C156.84,246.57 151.25,241.82 141.9,239.34C132.34,236.81 120.11,233.68 107.66,230.88C83.07,225.36 57.14,218.1 57.14,198.35C57.14,178.6 84.61,164.52 135.28,164.52C151.25,164.52 174.54,166.61 189.43,172.54L182.86,180.74C167.44,176.35 149.92,174.71 133.95,174.71C107.27,174.71 98,182.19 98,190.18L97.99,190.19Z" style="fill:rgb(26,29,86);fill-rule:nonzero;"/>
        </g>
        <g>
            <g transform="matrix(0.161259,-0.986912,0.986912,0.161259,289.05,510.66)">
                <circle cx="444.98" cy="85.26" r="56.69" style="fill:white;"/>
            </g>
            <path d="M388.29,85.26C388.29,53.95 413.67,28.57 444.98,28.57C470.66,28.57 492.35,45.64 499.32,69.05C494.88,62.45 489.69,56.4 483.86,51.02C482.75,51.47 481.6,51.96 480.43,52.48C488.03,58.4 494.75,65.39 500.39,73.23C501.05,76.28 501.46,79.42 501.61,82.63C494.19,72.02 484.02,62.53 473.3,55.84C471.73,56.63 470.12,57.47 468.49,58.37C481.01,64.65 492.92,74.29 501.67,85.54C501.66,88 501.49,90.42 501.17,92.8C490.45,79.57 476.23,69.32 459.92,63.47C457.88,64.78 455.83,66.18 453.78,67.66C472.16,72.15 488.39,82.1 500.72,95.69C500.32,97.84 499.8,99.94 499.17,101.99C484.84,87.34 465.6,77.56 444.1,75.36C441.76,77.4 439.45,79.58 437.18,81.89L438.09,81.89C461.2,81.89 482.23,90.65 498.14,105.03C497.38,107.06 496.52,109.04 495.54,110.95C480.71,98.95 461.88,91.76 441.33,91.76C436.67,91.76 432.09,92.13 427.63,92.84C425.42,95.71 423.29,98.75 421.28,101.95C428.69,99.86 436.5,98.75 444.57,98.75C462.86,98.75 479.78,104.48 493.72,114.23C492.51,116.26 491.17,118.21 489.73,120.07C477.44,112.8 463.13,108.63 447.82,108.63C435.66,108.63 424.12,111.26 413.73,115.98C412.14,119.48 410.68,123.15 409.37,126.99C421.59,119.77 435.84,115.63 451.06,115.63C463.81,115.63 475.86,118.54 486.63,123.73C476.27,134.94 461.45,141.95 444.99,141.95C413.68,141.95 388.3,116.57 388.3,85.26L388.29,85.26Z" style="fill:rgb(228,35,19);fill-rule:nonzero;"/>
        </g>
    </g>
</svg>
