<?xml version="1.0" encoding="UTF-8"?><svg xmlns="http://www.w3.org/2000/svg" viewBox="0 0 691.85 335.97"><defs><style>.c{fill:#fff;}.d{fill:#e42313;}.e{fill:none;}.f{fill:#1a1d56;}</style></defs><g id="a"><rect class="e" width="691.85" height="335.97"/></g><g id="b"><g><path class="f" d="M323.34,229.45c15.72,0,30.2-10.12,30.2-26.05s-12.2-27.11-30.19-27.11h-10.27c-24.18,0-43.99,18.5-43.99,45.26v57.29h-41.22v-57.14c0-31.92,32.6-57.14,71.9-57.14h28.81c29.62,0,65.44,9.62,65.44,38.85s-32.82,38.84-65.45,38.84h-54.62v-12.79h49.39Z"/><rect class="f" x="424.39" y="164.55" width="41.22" height="114.28"/><path class="f" d="M612.49,227.49h-71.25c2.87,21.67,19.91,37.9,39.98,37.9h53.48v12.95h-65.09c-39.3,0-71.94-25.21-71.94-57.14s32.63-57.14,71.93-57.14h65.11v12.68h-53.49c-20.16,0-37.25,16.37-40.01,38.17h71.28v12.58Z"/><path class="f" d="M97.99,190.19c0,4.59,5.49,8.72,15.26,11.38,9.85,2.68,22.23,5.79,34.94,8.87,25.08,6.08,51.51,14.18,51.51,32.98,0,21.08-37.96,35.4-89.51,35.4-18.91,0-36.87-1.85-55.12-7.06l5.81-10.27c16.6,6.1,40.23,7.26,57.67,7.26,21.15,0,38.29-6.72,38.29-16.54,0-5.64-5.59-10.39-14.94-12.87-9.56-2.53-21.79-5.66-34.24-8.46-24.59-5.52-50.52-12.78-50.52-32.53s27.47-33.83,78.14-33.83c15.97,0,39.26,2.09,54.15,8.02l-6.57,8.2c-15.42-4.39-32.94-6.03-48.91-6.03-26.68,0-35.95,7.48-35.95,15.47Z"/></g><g><circle class="c" cx="444.98" cy="85.26" r="56.69" transform="translate(289.05 510.66) rotate(-80.72)"/><path class="d" d="M388.29,85.26c0-31.31,25.38-56.69,56.69-56.69,25.68,0,47.37,17.07,54.34,40.48-4.44-6.6-9.63-12.65-15.46-18.03-1.11,.45-2.26,.94-3.43,1.46,7.6,5.92,14.32,12.91,19.96,20.75,.66,3.05,1.07,6.19,1.22,9.4-7.42-10.61-17.59-20.1-28.31-26.79-1.57,.79-3.18,1.63-4.81,2.53,12.52,6.28,24.43,15.92,33.18,27.17-.01,2.46-.18,4.88-.5,7.26-10.72-13.23-24.94-23.48-41.25-29.33-2.04,1.31-4.09,2.71-6.14,4.19,18.38,4.49,34.61,14.44,46.94,28.03-.4,2.15-.92,4.25-1.55,6.3-14.33-14.65-33.57-24.43-55.07-26.63-2.34,2.04-4.65,4.22-6.92,6.53h.91c23.11,0,44.14,8.76,60.05,23.14-.76,2.03-1.62,4.01-2.6,5.92-14.83-12-33.66-19.19-54.21-19.19-4.66,0-9.24,.37-13.7,1.08-2.21,2.87-4.34,5.91-6.35,9.11,7.41-2.09,15.22-3.2,23.29-3.2,18.29,0,35.21,5.73,49.15,15.48-1.21,2.03-2.55,3.98-3.99,5.84-12.29-7.27-26.6-11.44-41.91-11.44-12.16,0-23.7,2.63-34.09,7.35-1.59,3.5-3.05,7.17-4.36,11.01,12.22-7.22,26.47-11.36,41.69-11.36,12.75,0,24.8,2.91,35.57,8.1-10.36,11.21-25.18,18.22-41.64,18.22-31.31,0-56.69-25.38-56.69-56.69Z"/></g></g></svg>