<svg width="240" height="36" viewBox="0 0 240 36" fill="none" xmlns="http://www.w3.org/2000/svg">
<g clip-path="url(#clip0)">
<path d="M79 24.7V8.7C79 8.3 79.4 8 79.8 8H83.6C84 8 84.4 8.4 84.4 8.8V24.6C84.4 25.5 84.4 26.2 84.4 26.7C84.4 27.1 84.4 27.7 84.5 28.3C84.6 28.9 84.6 29.3 84.7 29.6C84.8 29.8 84.9 30.1 85.1 30.4C85.3 30.7 85.5 30.9 85.8 31C86.1 31.1 86.4 31.1 86.8 31.1C87.2 31.1 87.5 31.1 87.8 31C88.1 30.9 88.3 30.7 88.5 30.4C88.7 30.1 88.8 29.9 88.9 29.6C89 29.4 89.1 28.9 89.1 28.3C89.1 27.7 89.2 27.2 89.2 26.8C89.2 26.4 89.2 25.7 89.2 24.8V24.7V8.7C89.2 8.3 89.5 8 90 8H93.8C94.2 8 94.6 8.4 94.6 8.8V24.7C94.6 25.5 94.6 26.3 94.5 27C94.5 27.7 94.4 28.4 94.2 29.1C94.1 29.8 93.9 30.5 93.6 31.1C93.4 31.7 93 32.2 92.7 32.7C92.3 33.2 91.8 33.6 91.3 34C90.8 34.3 90.1 34.6 89.4 34.8C88.6 35 87.8 35.1 86.8 35.1C85.8 35.1 85 35 84.2 34.8C83.4 34.6 82.8 34.3 82.3 34C81.8 33.7 81.3 33.2 80.9 32.7C80.5 32.2 80.2 31.6 80 31.1C79.8 30.5 79.6 29.9 79.4 29.1C79.3 28.4 79.2 27.6 79.1 27C79.1 26.3 79 25.5 79 24.7Z" fill="#022234"/>
<path d="M98.2 33.8V8.8C98.2 8.3 98.6 8 99 8H104.6C106.9 8 108.6 8.6 109.7 9.9C110.8 11.2 111.3 13.1 111.3 15.5C111.3 16.7 111.2 17.7 111 18.6C110.8 19.5 110.4 20.2 110 20.8C109.6 21.4 109.1 21.8 108.4 22.2C107.7 22.6 107 22.8 106.3 22.9C105.5 23 104.7 23.1 103.7 23.1V33.7C103.7 34.1 103.3 34.5 102.9 34.5H99C98.6 34.6 98.2 34.2 98.2 33.8ZM103.7 19.4C104 19.4 104.2 19.4 104.5 19.3C104.7 19.3 104.9 19.2 105.1 19.2C105.3 19.2 105.4 19.1 105.5 19C105.6 18.9 105.7 18.8 105.8 18.7C105.9 18.6 106 18.5 106 18.3C106.1 18.1 106.1 17.9 106.1 17.8C106.1 17.7 106.2 17.5 106.2 17.2C106.2 16.9 106.2 16.7 106.2 16.5C106.2 16.3 106.2 16.1 106.2 15.7C106.2 15.6 106.2 15.5 106.2 15.5C106.2 15.1 106.2 14.8 106.2 14.6C106.2 14.4 106.2 14.2 106.1 13.8C106.1 13.5 106 13.3 106 13.1C105.9 12.9 105.8 12.8 105.7 12.6C105.6 12.4 105.4 12.3 105.2 12.2C105 12.1 104.8 12 104.5 12C104.2 11.9 103.9 11.9 103.6 11.9V19.4H103.7Z" fill="#022234"/>
<path d="M114 33.8V8.80002C114 8.40002 114.4 8.00002 114.8 8.00002H118.6C119 8.00002 119.4 8.40002 119.4 8.80002V18.9H123.3V8.70002C123.3 8.30002 123.7 7.90002 124.1 7.90002H127.9C128.3 7.90002 128.7 8.30002 128.7 8.70002V33.7C128.7 34.1 128.3 34.5 127.9 34.5H124C123.6 34.5 123.2 34.1 123.2 33.7V22.7H119.3V33.8C119.3 34.2 118.9 34.6 118.5 34.6H114.7C114.3 34.6 114 34.2 114 33.8Z" fill="#022234"/>
<path d="M132.4 33.8V8.8C132.4 8.4 132.8 8 133.2 8H137C137.4 8 137.8 8.4 137.8 8.8V33.8C137.8 34.2 137.4 34.6 137 34.6H133.2C132.8 34.6 132.4 34.2 132.4 33.8Z" fill="#022234"/>
<path d="M141.6 33.8V8.8C141.6 8.4 142 8 142.4 8H146.2C146.6 8 147 8.4 147 8.8V30.9H151.5C151.9 30.9 152.3 31.3 152.3 31.7V33.8C152.3 34.2 151.9 34.6 151.5 34.6H142.4C141.9 34.6 141.6 34.2 141.6 33.8Z" fill="#022234"/>
<path d="M154.6 33.8V8.8C154.6 8.4 155 8 155.4 8H159.2C159.6 8 160 8.4 160 8.8V30.9H164.5C164.9 30.9 165.3 31.3 165.3 31.7V33.8C165.3 34.2 164.9 34.6 164.5 34.6H155.4C154.9 34.6 154.6 34.2 154.6 33.8Z" fill="#022234"/>
<path d="M173.9 25.7V16.9C173.9 10.6 176.5 7.5 181.6 7.5C182.7 7.5 183.6 7.6 184.5 7.9C185.3 8.2 186.1 8.6 186.6 9.1C187.2 9.6 187.6 10.2 188 11C188.4 11.7 188.6 12.6 188.8 13.4C189 14.3 189 15.2 189 16.3V17.8C189 18.2 188.6 18.6 188.2 18.6H184.5C184.1 18.6 183.7 18.2 183.7 17.8V16.1C183.7 15.6 183.7 15.2 183.7 14.8C183.7 14.4 183.6 14.1 183.5 13.6C183.4 13.2 183.3 12.8 183.2 12.5C183.1 12.2 182.8 12 182.6 11.8C182.3 11.6 182 11.5 181.6 11.5C180 11.5 179.3 12.8 179.3 15.4V27C179.3 29.6 180.1 30.9 181.6 30.9C182.1 30.9 182.5 30.8 182.8 30.5C183.1 30.2 183.3 29.9 183.5 29.4C183.6 28.9 183.7 28.4 183.8 28C183.8 27.5 183.9 27 183.9 26.4V24.5C183.9 24.1 184.3 23.7 184.7 23.7H188.4C188.8 23.7 189.2 24.1 189.2 24.5V26C189.2 27 189.1 28 188.9 28.8C188.8 29.7 188.5 30.5 188.1 31.3C187.7 32.1 187.3 32.8 186.7 33.4C186.2 34 185.4 34.4 184.6 34.7C183.7 35 182.7 35.2 181.6 35.2C180.4 35.2 179.4 35 178.5 34.7C177.6 34.4 176.9 33.9 176.3 33.4C175.7 32.8 175.2 32.2 174.9 31.3C174.5 30.5 174.3 29.6 174.1 28.7C174 27.8 173.9 26.8 173.9 25.7Z" fill="#022234"/>
<path d="M191.9 25.8V16.8C191.9 10.5 194.5 7.40002 199.7 7.40002C204.9 7.40002 207.5 10.5 207.5 16.8V25.6C207.5 26.7 207.4 27.7 207.3 28.6C207.1 29.5 206.9 30.4 206.5 31.2C206.1 32 205.6 32.7 205 33.3C204.4 33.9 203.7 34.3 202.8 34.6C201.9 34.9 200.9 35.1 199.7 35.1C198.6 35.1 197.5 34.9 196.6 34.6C195.7 34.3 195 33.8 194.4 33.3C193.8 32.8 193.3 32.1 193 31.3C192.6 30.5 192.3 29.7 192.2 28.8C192 27.9 191.9 26.9 191.9 25.8ZM202.1 27V15.5C202.1 12.9 201.3 11.6 199.7 11.6C199.2 11.6 198.8 11.7 198.5 12C198.2 12.2 197.9 12.6 197.8 13C197.6 13.4 197.5 13.8 197.5 14.2C197.5 14.6 197.4 15.1 197.4 15.5V27C197.4 29.6 198.2 30.9 199.8 30.9C201.3 31 202.1 29.7 202.1 27Z" fill="#022234"/>
<path d="M210.9 33.8V8.70002C210.9 8.30002 211.3 7.90002 211.7 7.90002H214.2C214.5 7.90002 214.8 8.10002 214.9 8.40002L220.5 21.9V8.70002C220.5 8.30002 220.9 7.90002 221.3 7.90002H224.2C224.6 7.90002 225 8.30002 225 8.70002V33.8C225 34.2 224.6 34.6 224.2 34.6H221.8C221.5 34.6 221.2 34.4 221.1 34.1L215.5 19.8V33.8C215.5 34.2 215.1 34.6 214.7 34.6H211.7C211.3 34.6 210.9 34.2 210.9 33.8Z" fill="#022234"/>
<path d="M228.9 33.8V8.8C228.9 8.4 229.3 8 229.7 8H239.2C239.6 8 240 8.4 240 8.8V10.9C240 11.3 239.6 11.7 239.2 11.7H234.3V19H237.6C238 19 238.4 19.4 238.4 19.8V22C238.4 22.4 238 22.8 237.6 22.8H234.3V33.9C234.3 34.3 233.9 34.7 233.5 34.7H229.7C229.2 34.6 228.9 34.2 228.9 33.8Z" fill="#022234"/>
<path d="M65.6 31.4C61.9 23.8 53.5 8.09998 46.8 8.09998C44.6 8.09998 42.1 9.79997 39.8 12.4C46.7 22.6 52.2001 35.4 52.2001 35.4H63.1C65.1 35.5 66.5 33.3 65.6 31.4Z" fill="#23D5DF"/>
<path d="M26 35.5H42.5C42.5 35.5 39.2 27.8 34.4 19.5C29.7 27 26 35.5 26 35.5Z" fill="#1C4C61"/>
<path d="M34.5 19.5C39.2 27.7 42.6 35.5 42.6 35.5H52.2C52.2 35.5 46.7 22.7 39.8 12.5C37.9 14.4 36.1 16.9 34.5 19.5Z" fill="#022840"/>
<path d="M33.3 17.6C33 17 32.6 16.4 32.2 15.9C28.7 9.99999 24.5 4.49999 20.5 1.79999C12.5 7.19999 3.90003 23.8 0.30003 31.5C-0.59997 33.4 0.80003 35.5 2.80003 35.5H21.7H23.9C24.4 34.2 28.2 25.6 33.1 18C33.2 17.8 33.3 17.7 33.3 17.6Z" fill="#DB3953"/>
<path d="M25.3 0C25.2 0 25 0 24.9 0H24.8C24.7 0 24.6 0 24.5 0C24.4 0 24.2 0 24.1 0.1H24C23.9 0.1 23.8 0.1 23.7 0.2H23.6C23.5 0.2 23.4 0.3 23.2 0.3H23.1C23 0.3 22.9 0.4 22.8 0.4C22.8 0.4 22.7 0.4 22.7 0.5C22.6 0.5 22.5 0.6 22.4 0.7C22.3 0.7 22.3 0.8 22.2 0.8C22.1 0.8 22 0.9 22 0.9C21.9 0.9 21.9 1 21.8 1C21.7 1.1 21.6 1.1 21.5 1.2C21.4 1.2 21.4 1.3 21.3 1.3C21.2 1.3 21.2 1.4 21.1 1.4C21 1.4 21 1.5 20.9 1.5C20.8 1.6 20.7 1.6 20.6 1.7C24.6 4.4 28.8 10 32.4 15.8C32.8 16.4 33.1 17 33.5 17.5C35.1 15 36.9 12.6 38.6 10.6C38.3 10.1 37.9 9.7 37.6 9.3C33.5 4 29.2 0 25.3 0Z" fill="#A82B44"/>
</g>
<defs>
<clipPath id="clip0">
<rect width="240" height="35.5" fill="white"/>
</clipPath>
</defs>
</svg>
